<?xml version="1.0" encoding="utf-8"?>
<!-- Generator: Adobe Illustrator 16.0.0, SVG Export Plug-In . SVG Version: 6.00 Build 0)  -->
<!DOCTYPE svg PUBLIC "-//W3C//DTD SVG 1.1//EN" "http://www.w3.org/Graphics/SVG/1.1/DTD/svg11.dtd">
<svg version="1.1" xmlns="http://www.w3.org/2000/svg" xmlns:xlink="http://www.w3.org/1999/xlink" x="0px" y="0px" width="20px"
	 height="20px" viewBox="0 0 20 20" enable-background="new 0 0 20 20" xml:space="preserve">
<g id="Capa_1">
	<circle opacity="0.3" fill="#D7407A" cx="10" cy="10" r="10"/>
	<g id="Capa_1_2_">
		<g id="Capa_1_1_">
			<g display="none">
				<path display="inline" fill="#9BACB9" d="M11.07,8.792c3.832,0.079,2.887,2.664,2.865,3.406L17.5,8.844L10.104,2l-4.06,3.915
					C5.988,9.183,8.139,8.732,11.07,8.792z"/>
				<path display="inline" fill="#9BACB9" d="M8.928,11.208c-3.834-0.077-2.887-2.662-2.864-3.407L2.5,11.156L9.896,18l4.06-3.915
					C14.014,10.818,11.861,11.268,8.928,11.208z"/>
			</g>
		</g>
	</g>
	<path fill="#D7407A" stroke="#D7407A" stroke-miterlimit="10" d="M16.666,10c0-3.682-2.982-6.667-6.666-6.667
		c-3.683,0-6.667,2.985-6.667,6.667c0,3.684,2.984,6.666,6.667,6.666C13.684,16.666,16.666,13.684,16.666,10z M4.667,10
		c0-2.947,2.386-5.333,5.333-5.333c1.232,0,2.364,0.423,3.266,1.123l-7.477,7.476C5.089,12.363,4.667,11.232,4.667,10z
		 M6.734,14.211l7.477-7.476C14.91,7.637,15.334,8.767,15.334,10c0,2.945-2.387,5.332-5.334,5.332
		C8.768,15.332,7.637,14.909,6.734,14.211z"/>
</g>
<g id="Modo_de_aislamiento">
</g>
</svg>
