<?xml version="1.0" encoding="utf-8"?>
<!-- Generator: Adobe Illustrator 19.0.1, SVG Export Plug-In . SVG Version: 6.00 Build 0)  -->
<svg version="1.1" id="Capa_1" xmlns="http://www.w3.org/2000/svg" xmlns:xlink="http://www.w3.org/1999/xlink" x="0px" y="0px"
	 viewBox="-389 291 20 20" style="enable-background:new -389 291 20 20;" xml:space="preserve">
<style type="text/css">
	.st0{opacity:0.3;fill:#0081CA;enable-background:new    ;}
	.st1{display:none;}
	.st2{display:inline;fill:#9BACB9;}
	.st3{display:inline;fill:#0081CA;}
	.st4{display:inline;fill:#FFFFFF;}
	.st5{fill:none;stroke:#0081CA;stroke-linejoin:round;stroke-miterlimit:10;}
	.st6{fill:none;stroke:#0081CA;stroke-miterlimit:10;}
</style>
<circle class="st0" cx="-379" cy="301" r="10"/>
<g id="Capa_1_1_">
	<g class="st1">
		<path class="st2" d="M-766.9,590.8c3.8,0.1,2.9,2.7,2.9,3.4l3.6-3.4l-7.4-6.8l-4.1,3.9C-772,591.2-769.9,590.7-766.9,590.8z"/>
		<path class="st2" d="M-769.1,593.2c-3.8-0.1-2.9-2.7-2.9-3.4l-3.6,3.4l7.4,6.8l4.1-3.9C-764,592.8-766.1,593.3-769.1,593.2z"/>
	</g>
</g>
<g id="Modo_de_aislamiento" class="st1">
	<circle class="st3" cx="-768" cy="592" r="9"/>
	<path class="st4" d="M-772.8,593.7l3.1-0.2c0.1,0.5,0.2,0.8,0.4,1.1c0.3,0.4,0.8,0.6,1.4,0.6c0.5,0,0.8-0.1,1.1-0.3
		c0.2-0.2,0.4-0.4,0.4-0.7s-0.1-0.5-0.4-0.7c-0.2-0.2-0.8-0.4-1.7-0.6c-1.4-0.3-2.5-0.7-3.1-1.2c-0.6-0.5-0.9-1.2-0.9-1.9
		c0-0.5,0.2-1,0.5-1.5s0.8-0.8,1.4-1.1c0.6-0.3,1.5-0.4,2.6-0.4c1.4,0,2.4,0.2,3.1,0.7c0.7,0.5,1.1,1.2,1.3,2.3l-3.1,0.2
		c-0.1-0.5-0.3-0.8-0.5-1c-0.3-0.2-0.6-0.3-1.1-0.3c-0.4,0-0.7,0.1-0.9,0.2c-0.2,0.2-0.3,0.3-0.3,0.6c0,0.2,0.1,0.3,0.2,0.4
		c0.2,0.1,0.5,0.2,1.1,0.4c1.4,0.3,2.4,0.6,3.1,0.9c0.6,0.3,1.1,0.7,1.4,1.1c0.3,0.4,0.4,0.9,0.4,1.5c0,0.6-0.2,1.2-0.6,1.8
		c-0.4,0.5-0.9,1-1.6,1.2c-0.7,0.3-1.5,0.4-2.5,0.4c-1.8,0-3-0.3-3.7-1C-772.3,595.5-772.7,594.7-772.8,593.7L-772.8,593.7z"/>
</g>
<g class="st1">
	<path class="st3" d="M-737.2,593.8c0-0.6,0.8-2.7-2.3-2.8c-2.4,0-4.1,0.3-4.1-2.3l3.3-3.2l6,5.6L-737.2,593.8L-737.2,593.8z"/>
	<path class="st3" d="M-743.6,590.2c0,0.6-0.8,2.7,2.3,2.8c2.4,0,4.1-0.3,4.1,2.3l-3.3,3.2l-6-5.6L-743.6,590.2L-743.6,590.2z"/>
</g>
<g>
	<polygon class="st5" points="-374,303.8 -379,306.5 -384,303.8 -384,298.2 -379,295.5 -374,298.2 	"/>
	<line class="st6" x1="-379" y1="306.5" x2="-379" y2="301"/>
	<polyline class="st6" points="-384,298.2 -379,301 -374,298.2 	"/>
</g>
<g id="Modo_de_aislamiento_1_">
</g>
</svg>
