<?xml version="1.0" encoding="utf-8"?>
<!-- Generator: Adobe Illustrator 16.0.0, SVG Export Plug-In . SVG Version: 6.00 Build 0)  -->
<!DOCTYPE svg PUBLIC "-//W3C//DTD SVG 1.1//EN" "http://www.w3.org/Graphics/SVG/1.1/DTD/svg11.dtd">
<svg version="1.1" id="Capa_1" xmlns="http://www.w3.org/2000/svg" xmlns:xlink="http://www.w3.org/1999/xlink" x="0px" y="0px"
	 width="20px" height="20px" viewBox="0 0 20 20" enable-background="new 0 0 20 20" xml:space="preserve">
<g id="Capa_1_2_">
	<g id="Capa_1_1_">
		<g>
			<path display="none" fill="#9BACB9" d="M11.13,8.792c4.045,0.079,3.047,2.664,3.024,3.406l3.763-3.354L10.11,2L5.824,5.915
				C5.765,9.183,8.036,8.732,11.13,8.792z"/>
			<path display="none" fill="#9BACB9" d="M8.869,11.208c-4.047-0.077-3.047-2.662-3.023-3.407l-3.762,3.355L9.89,18l4.286-3.915
				C14.236,10.818,11.965,11.268,8.869,11.208z"/>
		</g>
	</g>
	<g id="Modo_de_aislamiento">
		<ellipse display="none" fill="#9BACB9" cx="10" cy="10" rx="9.5" ry="9"/>
		<path display="none" fill="#FFFFFF" d="M4.938,11.689l3.282-0.181c0.072,0.479,0.215,0.841,0.435,1.095
			c0.351,0.404,0.86,0.603,1.52,0.603c0.493,0,0.87-0.101,1.138-0.31c0.264-0.205,0.399-0.441,0.399-0.717
			c0-0.264-0.128-0.496-0.381-0.697c-0.258-0.205-0.843-0.4-1.767-0.584c-1.514-0.304-2.589-0.708-3.232-1.209
			C5.684,9.183,5.36,8.537,5.36,7.759c0-0.516,0.163-1.004,0.497-1.46C6.188,5.838,6.686,5.483,7.356,5.22
			c0.664-0.262,1.58-0.396,2.739-0.396c1.431,0,2.518,0.239,3.262,0.717c0.748,0.473,1.197,1.236,1.336,2.27l-3.243,0.171
			c-0.089-0.455-0.268-0.781-0.551-0.985c-0.271-0.2-0.655-0.305-1.137-0.305c-0.403,0-0.705,0.077-0.91,0.228
			C8.649,7.074,8.549,7.261,8.549,7.475c0,0.165,0.079,0.302,0.247,0.437C8.96,8.041,9.344,8.16,9.956,8.279
			c1.503,0.289,2.581,0.58,3.234,0.882c0.649,0.301,1.126,0.667,1.425,1.109c0.292,0.438,0.447,0.934,0.447,1.48
			c0,0.641-0.202,1.236-0.596,1.771c-0.396,0.545-0.945,0.959-1.658,1.232c-0.705,0.279-1.605,0.42-2.686,0.42
			c-1.896,0-3.206-0.33-3.94-0.98C5.45,13.537,5.038,12.703,4.938,11.689L4.938,11.689z"/>
	</g>
	<circle opacity="0.3" fill="#D7407A" enable-background="new    " cx="10" cy="10" r="10"/>
</g>
<g id="Modo_de_aislamiento_1_">
	<g>
		<path fill="#D7407A" d="M13.527,11.986c0.02-0.672,0.867-3.006-2.568-3.078C8.333,8.855,6.405,9.262,6.457,6.311l3.637-3.536
			l6.627,6.18L13.527,11.986L13.527,11.986z"/>
		<path fill="#D7407A" d="M6.474,8.015c-0.02,0.671-0.868,3.006,2.568,3.077c2.626,0.054,4.554-0.352,4.505,2.598l-3.639,3.536
			L3.28,11.047L6.474,8.015L6.474,8.015z"/>
	</g>
</g>
</svg>
