<?xml version="1.0" encoding="utf-8"?>
<!-- Generator: Adobe Illustrator 19.0.1, SVG Export Plug-In . SVG Version: 6.00 Build 0)  -->
<svg version="1.1" id="Capa_1" xmlns="http://www.w3.org/2000/svg" xmlns:xlink="http://www.w3.org/1999/xlink" x="0px" y="0px"
	 viewBox="-389 291 20 20" style="enable-background:new -389 291 20 20;" xml:space="preserve">
<style type="text/css">
	.st0{opacity:0.3;fill:#F4AD21;enable-background:new    ;}
	.st1{display:none;opacity:0.5;}
	.st2{display:inline;fill:#D7407A;}
	.st3{display:none;fill:#D7407A;}
	.st4{display:none;opacity:0.3;fill:#D7407A;enable-background:new    ;}
	.st5{display:none;opacity:0.7;}
	.st6{display:none;fill:#FFFFFF;}
	.st7{fill:#F4AD21;}
</style>
<circle class="st0" cx="-379" cy="301" r="10"/>
<path class="st7" d="M-372.8,304.3l-5.4-8.8c-0.4-0.7-1.2-0.7-1.6,0l-5.4,8.8c-0.6,0.9-0.2,1.7,1,1.7h10.6
	C-372.6,306-372.2,305.2-372.8,304.3z M-380,299c0-0.5,0.4-1,1-1c0.5,0,1,0.5,1,1v2c0,0.5-0.4,1-1,1c-0.5,0-1-0.5-1-1V299z
	 M-379,305c-0.6,0-1-0.4-1-1s0.4-1,1-1c0.6,0,1,0.4,1,1S-378.4,305-379,305z"/>
</svg>
